<?xml version="1.0" encoding="UTF-8" standalone="no"?>
<!-- Created with Inkscape (http://www.inkscape.org/) -->

<svg
   width="667.2132"
   height="750.52533"
   viewBox="0 0 667.2132 750.52533"
   version="1.1"
   id="svg1"
   xml:space="preserve"
   xmlns:inkscape="http://www.inkscape.org/namespaces/inkscape"
   xmlns:sodipodi="http://sodipodi.sourceforge.net/DTD/sodipodi-0.dtd"
   xmlns="http://www.w3.org/2000/svg"
   xmlns:svg="http://www.w3.org/2000/svg"><sodipodi:namedview
     id="namedview1"
     pagecolor="#ffffff"
     bordercolor="#000000"
     borderopacity="0.25"
     inkscape:showpageshadow="2"
     inkscape:pageopacity="0.0"
     inkscape:pagecheckerboard="0"
     inkscape:deskcolor="#d1d1d1"
     inkscape:document-units="px" /><defs
     id="defs1" /><g
     inkscape:label="Layer 1"
     inkscape:groupmode="layer"
     id="layer1"
     transform="translate(-626.39337,-164.73734)"><path
       id="path1"
       d="M 927.8313,906.64309 658.5621,751.18047 A 64.337433,64.337433 0 0 1 626.3934,695.46263 V 384.5374 a 64.337433,64.337433 0 0 1 32.1687,-55.71785 L 927.8312,173.35694 a 64.337433,64.337433 0 0 1 64.3375,-1e-5 l 269.2691,155.46261 a 64.337432,64.337432 0 0 1 32.1688,55.71784 v 310.92523 a 64.337433,64.337433 0 0 1 -32.1687,55.71785 L 992.1687,906.64308 a 64.337431,64.337431 0 0 1 -64.3374,10e-6 z"
       style="display:inline;opacity:1;fill:#ff0000;fill-opacity:1;stroke-width:6.02578;stroke-linecap:round;stroke-linejoin:round" /><path
       fill="#ffffff"
       d="M 887.1528,649.70119 1078.5502,540 887.1528,430.29881 c 0,0.17837 0,219.40238 0,219.40238 z"
       id="path2"
       style="display:inline;fill:#ffffff;fill-opacity:1;stroke-width:1.78375" /><path
       style="color:#000000;fill:#ffffff;stroke-linecap:round;stroke-linejoin:round;-inkscape-stroke:none"
       d="m 960,302.25 c -8.6697,0 -17.3385,2.24009 -25.0957,6.71875 L 770.7363,403.75 c -15.5146,8.95732 -25.0957,25.5541 -25.0957,43.46875 v 189.5625 c 0,17.91464 9.5811,34.51143 25.0957,43.46875 l 164.1679,94.78125 c 15.5146,8.95732 34.6769,8.95733 50.1915,0 L 1149.2637,680.25 c 15.5145,-8.95732 25.0957,-25.5541 25.0957,-43.46875 v -189.5625 c 0,-17.91464 -9.5812,-34.51143 -25.0957,-43.46875 L 985.0957,308.96875 C 977.3384,304.49009 968.6696,302.25 960,302.25 Z m 0,21.92187 c 4.8747,0 9.7499,1.26477 14.1289,3.79297 l 164.166,94.78125 c 8.758,5.0564 14.1289,14.35986 14.1289,24.47266 v 189.5625 c 0,10.11281 -5.3709,19.41625 -14.1289,24.47266 l -164.166,94.78125 c -8.758,5.0564 -19.4999,5.0564 -28.2578,0 L 781.705,661.25391 c -8.7579,-5.05641 -14.1289,-14.35985 -14.1289,-24.47266 v -189.5625 c 0,-10.11281 5.371,-19.41625 14.1289,-24.47266 l 164.1661,-94.78125 c 4.3789,-2.5282 9.2541,-3.79296 14.1289,-3.79297 z"
       id="path3" /></g></svg>
