<svg xmlns="http://www.w3.org/2000/svg" xml:space="preserve" width="667.213" height="750.525"><path d="M927.831 906.643 658.562 751.18a64.337 64.337 0 0 1-32.169-55.717V384.537a64.337 64.337 0 0 1 32.17-55.717L927.83 173.357a64.337 64.337 0 0 1 64.338 0l269.269 155.463a64.337 64.337 0 0 1 32.169 55.717v310.926a64.337 64.337 0 0 1-32.17 55.717L992.17 906.643a64.337 64.337 0 0 1-64.338 0z" style="display:inline;opacity:1;fill:red;fill-opacity:1;stroke-width:6.02578;stroke-linecap:round;stroke-linejoin:round" transform="translate(-626.393 -164.737)"/><path fill="#fff" d="M887.153 649.701 1078.55 540 887.153 430.299V649.7z" style="display:inline;fill:#fff;fill-opacity:1;stroke-width:1.78375" transform="translate(-626.393 -164.737)"/><path d="M960 302.25c-8.67 0-17.338 2.24-25.096 6.719L770.736 403.75a50.235 50.235 0 0 0-25.095 43.469V636.78a50.235 50.235 0 0 0 25.095 43.469l164.168 94.781a50.233 50.233 0 0 0 50.192 0l164.168-94.781a50.236 50.236 0 0 0 25.095-43.469V447.22a50.236 50.236 0 0 0-25.095-43.469l-164.168-94.781A50.166 50.166 0 0 0 960 302.25Zm0 21.922c4.875 0 9.75 1.265 14.129 3.793l164.166 94.781a28.217 28.217 0 0 1 14.129 24.473V636.78a28.217 28.217 0 0 1-14.13 24.473L974.13 756.035a28.216 28.216 0 0 1-28.258 0l-164.166-94.781a28.217 28.217 0 0 1-14.129-24.473V447.22a28.217 28.217 0 0 1 14.129-24.473l164.166-94.781A28.234 28.234 0 0 1 960 324.172z" style="color:#000;fill:#fff;stroke-linecap:round;stroke-linejoin:round;-inkscape-stroke:none" transform="translate(-626.393 -164.737)"/></svg>